# xmcd
#
# Track frame offsets: 
#        150
#        15036
#        32506
#        47617
#        62710
#        77819
#        92049
#        102119
#        114251
#        124878
#        137529
#        153277
#        168201
#        180564
#        196067
#        202410
#        227320
#        245816
#        257091
#        270180
#        288199
#        303818
#        323082
#        336703
#
# Disc length: 4665 seconds
#
# Revision: 1
# Processed by: cddbd v1.5.2PL0 Copyright (c) Steve Scherf et al.
# Submitted via: ExactAudioCopyFreeDBPlugin 1.0
#
DISCID=36123718
DTITLE=Various Artist - Compendium
DYEAR=2009
DGENRE=Country
TTITLE0=The Dad Horse Experience - Moonshiner
TTITLE1=Damn Laser Vampires - Saint of Killers
TTITLE2=Pinebox Serenade - Witch on the Mountain
TTITLE3=Hank Ray - Bar-B-Q of Souls
TTITLE4=Hank Ray - The Day Sweet Valerie Turned Evil
TTITLE5=Hank Ray - Blues Turn Red
TTITLE6=JB Nelson and the Chainsaws - Watch Out for the Devil
TTITLE7=Sleepy Eyes Nelson - Jesus is Comin'
TTITLE8=JB Nelson - I'll Take You Down
TTITLE9=Christian Williams - The Devil's In Your Eyes
TTITLE10=The Sad Bastard Book Club - Do You Know What Two Cents Would 
TTITLE10=Have Bought You In My Day
TTITLE11=The Sad Bastard Book Club - And See Kids, This is Why We Don'
TTITLE11=t Talk to the Neighbords
TTITLE12=Reverend Elvis - Die Alone
TTITLE13=Uncle Sinner - Jack of Diamonds
TTITLE14=Christian Williams - Chaos
TTITLE15=Oldboy - Town
TTITLE16=Oldboy - A Tragic Accident
TTITLE17=Slim Wild Boar - Lost My Mojo
TTITLE18=Big John Bates - Bangtown
TTITLE19=Muzza Monroe and the Lushous Strings - Gypsy Wench
TTITLE20=Joel Kaiser and the Devil's Own - The Devil Knows Best
TTITLE21=Mountain Apple Epidemic, the - Worldly Alliance
TTITLE22=Dimestore Troubadours - Blood on a Tin Shack
TTITLE23=Black River Brethren - Ready to Die
EXTD=
EXTT0=
EXTT1=
EXTT2=
EXTT3=
EXTT4=
EXTT5=
EXTT6=
EXTT7=
EXTT8=
EXTT9=
EXTT10=
EXTT11=
EXTT12=
EXTT13=
EXTT14=
EXTT15=
EXTT16=
EXTT17=
EXTT18=
EXTT19=
EXTT20=
EXTT21=
EXTT22=
EXTT23=
PLAYORDER=
